<?xml version="1.0" encoding="utf-8"?>
<svg xmlns="http://www.w3.org/2000/svg" width="24" height="24" viewBox="0 0 24 24" xmlns:bx="https://boxy-svg.com"><defs><bx:export><bx:file format="svg" path="Sem título.svg"/></bx:export></defs><path d="M 12 2 C 13.105 2 14 2.895 14 4 C 14 4.74 13.6 5.39 13 5.73 L 13 7 L 14 7 C 17.866 7 21 10.134 21 14 L 22 14 C 22.552 14 23 14.448 23 15 L 23 18 C 23 18.552 22.552 19 22 19 L 21 19 L 21 20 C 21 21.105 20.105 22 19 22 L 5 22 C 3.895 22 3 21.105 3 20 L 3 19 L 2 19 C 1.448 19 1 18.552 1 18 L 1 15 C 1 14.448 1.448 14 2 14 L 3 14 C 3 10.134 6.134 7 10 7 L 11 7 L 11 5.73 C 10.4 5.39 10 4.74 10 4 C 10 2.895 10.895 2 12 2 M 7.5 16.195 C 6.119 16.195 5 14.119 5 15.5 C 5 16.881 6.119 18 7.5 18 C 8.881 18 10 16.881 10 15.5 C 10 14.119 8.831 16.246 7.45 16.246 M 16.5 16.195 C 15.119 16.195 14 14.119 14 15.5 C 14 16.881 15.119 18 16.5 18 C 17.881 18 19 16.881 19 15.5 C 19 14.119 17.931 16.195 16.55 16.195" style="fill: rgba(0, 0, 0, 0.9);"/></svg>